#!OML:ASF H:\Terrain\Patient Classification 1\Walking\liu\liu.ASF
:FULLY-SPECIFIED
:DEGREES
211
root 16.660641 33.011398 -15.741680 16.042879 0.198429 -11.539960
lowerback -14.275760 4.762900 6.462800
upperback -1.763782 5.594420 7.525560
thorax 6.108720 2.823720 4.701200
lowerneck -32.018799 -12.962060 -29.090799
upperneck 29.681999 -16.445101 29.990999
head 17.027060 -6.744880 12.986520
rclavicle -0.000000 -0.000000
rhumerus -73.804802 24.636400 -164.981003
rradius 106.275200
rwrist -54.414001
rhand -65.123596 -57.473400
rfingers 14.250040
rthumb -11.582280 -117.275200
lclavicle -0.000000 -0.000000
lhumerus -101.566803 -22.042999 194.447601
lradius 53.568600
lwrist 19.743740
lhand -25.325199 -49.759201
lfingers 14.250040
lthumb 26.836800 9.336380
rfemur 20.405399 11.057500 62.825802
rtibia 0.000000
rfoot -24.725599 10.961140
rtoes -15.887560
lfemur -87.928802 -6.042420 -20.891600
ltibia 41.352798
lfoot -34.108799 31.000999
ltoes -30.054199
212
root 16.693880 32.972000 -15.447260 16.361959 -0.430524 -11.890060
lowerback -14.564400 4.846920 6.756500
upperback -1.907780 5.672220 7.512460
thorax 6.134340 2.864920 4.541120
lowerneck -31.597601 -12.851000 -29.050800
upperneck 29.567400 -16.345140 29.998199
head 16.894819 -6.712960 12.998100
rclavicle -0.000000 0.000000
rhumerus -74.223000 25.350599 -165.853806
rradius 106.323799
rwrist -54.480202
rhand -64.909599 -57.763000
rfingers 14.250040
rthumb -11.375680 -117.570396
lclavicle -0.000000 0.000000
lhumerus -101.805199 -19.853121 192.751602
lradius 53.389599
lwrist 16.064779
lhand -25.264000 -49.443001
lfingers 14.250040
lthumb 26.895800 9.648860
rfemur 21.133400 11.372120 63.061199
rtibia 0.000000
rfoot -25.344999 11.257740
rtoes -15.665900
lfemur -88.807999 -6.490240 -19.604361
ltibia 40.713001
lfoot -34.917000 31.169600
ltoes -31.590200
213
root 16.735479 32.936401 -15.146120 16.683640 -0.964406 -12.499280
lowerback -14.743180 4.951300 7.253100
upperback -2.089840 5.764240 7.651580
thorax 6.061460 2.914100 4.420940
lowerneck -31.711000 -12.796880 -28.930599
upperneck 29.925800 -16.278099 29.775200
head 17.006559 -6.687660 12.915020
rclavicle 0.000000 0.000000
rhumerus -74.384003 25.532200 -166.572006
rradius 106.074799
rwrist -53.987000
rhand -64.720802 -59.380199
rfingers 14.250040
rthumb -11.193440 -119.192398
lclavicle 0.000000 0.000000
lhumerus -101.961197 -18.953039 192.077393
lradius 52.968601
lwrist 14.730420
lhand -29.714399 -59.213799
lfingers 14.250040
lthumb 22.605000 0.137177
rfemur 21.939600 11.639000 63.507401
rtibia 0.000000
rfoot -25.324400 11.734860
rtoes -15.937600
lfemur -89.484200 -5.757740 -18.981220
ltibia 40.171600
lfoot -35.069199 30.148600
ltoes -30.402000
214
root 16.775080 32.904598 -14.854420 17.003580 -1.399696 -12.705660
lowerback -14.944820 5.044620 7.352260
upperback -2.178760 5.870040 7.700080
thorax 6.083040 2.967080 4.434120
lowerneck -31.853399 -12.733860 -28.922600
upperneck 30.056200 -16.167219 29.678400
head 17.052200 -6.637280 12.896580
rclavicle 0.000000 0.000000
rhumerus -74.725601 25.646601 -167.113998
rradius 106.147797
rwrist -53.452202
rhand -64.587799 -60.973598
rfingers 14.250040
rthumb -11.064920 -120.789200
lclavicle 0.000000 0.000000
lhumerus -102.219002 -19.209400 192.303604
lradius 52.589001
lwrist 14.453680
lhand -39.106400 -84.912201
lfingers 14.250040
lthumb 13.542260 -25.168800
rfemur 22.704800 11.759740 63.524799
rtibia 0.000000
rfoot -24.858999 12.176640
rtoes -16.863859
lfemur -90.278999 -5.520320 -18.728279
ltibia 40.161598
lfoot -34.724201 30.421200
ltoes -25.433001
215
root 16.797859 32.873001 -14.589980 17.235901 -1.998458 -12.871060
lowerback -14.803620 5.213360 7.309820
upperback -2.294280 6.114320 7.669380
thorax 5.881420 3.086920 4.438900
lowerneck -31.209000 -12.704960 -28.677601
upperneck 29.613800 -16.191860 29.517000
head 16.774300 -6.677180 12.787460
rclavicle -0.000000 -0.000000
rhumerus -75.639603 25.935200 -167.641006
rradius 106.832397
rwrist -53.541401
rhand -64.401802 -61.313599
rfingers 14.250040
rthumb -10.885420 -121.133797
lclavicle -0.000000 -0.000000
lhumerus -102.368202 -19.253500 192.178207
lradius 51.995399
lwrist 13.322680
lhand -39.788200 -88.056999
lfingers 14.250040
lthumb 12.884160 -28.292999
rfemur 23.442200 12.003700 63.581200
rtibia 0.000000
rfoot -24.784800 12.493760
rtoes -18.157921
lfemur -91.007202 -5.255560 -18.390100
ltibia 40.379200
lfoot -34.131401 31.759800
ltoes -24.530001
